<?xml version="1.0" encoding="UTF-8"?>
<svg width="512" height="512" viewBox="0 0 512 512" xmlns="http://www.w3.org/2000/svg">
  <!-- Палец -->
  <path fill="#000000" d="M332 196h136c26.51 0 48 21.49 48 48s-21.49 48-48 48H332c-30.93 0-56.02 8.66-79.06 25.76C227.6 339.76 197.42 352 164 352c-30.37 0-56.34-9.36-74.38-27.31-18.09-18.01-26.26-43.2-21.66-68.03 8.63-47.17 49.67-77.86 115.87-99.39 63.36-20.61 120.01-13.34 150.01 16.66 11.44 11.45 28.2 21.07 46.16 21.07Z"/>
  <!-- Мешочек (основание) -->
  <path fill="#000000" d="M102 218c-28.42 29.43-36.45 66.38-24.33 103.38C92.6 374.6 150.58 424 256 424c74.76 0 132.19-27.93 157.17-75.53 20.69-39.41 11.62-83.62-23.54-111.47-28.74-22.7-70.61-34-114.63-34H212c-45.26 0-80.2 7.52-110 15Z"/>
  <!-- Узел/лента -->
  <path fill="#000000" d="M72 226c22-28 54-51 92-67l26-10 10 26c-40 14-70 32-95 55-9 8-23 7-33-4z"/>
  <!-- Чётки -->
  <circle cx="309" cy="354" r="16" fill="#000000"/>
  <circle cx="279" cy="370" r="16" fill="#000000"/>
  <circle cx="247" cy="378" r="16" fill="#000000"/>
  <circle cx="215" cy="376" r="16" fill="#000000"/>
  <circle cx="187" cy="364" r="16" fill="#000000"/>
  <circle cx="164" cy="344" r="16" fill="#000000"/>
</svg>
